name C:/MyDriveSym/Projects/mobilecap/Data\Session20210823_0002\mocap\ForceDataProcessed\walking1_forces.mot
datacolumns 19
datarows 19
range 0.35700000 0.36600000
endheader 
time	R_ground_force_vx	R_ground_force_vy	R_ground_force_vz	R_ground_force_px	R_ground_force_py	R_ground_force_pz	R_ground_torque_x	R_ground_torque_y	R_ground_torque_z	L_ground_force_vx	L_ground_force_vy	L_ground_force_vz	L_ground_force_px	L_ground_force_py	L_ground_force_pz	L_ground_torque_x	L_ground_torque_y	L_ground_torque_z	
          0.35700000	          3.46307000	        472.59654900	        -15.16442400	          0.29881200	          0.00600000	         -0.14553400	          0.00000000	         -2.34184600	          0.00000000	          0.00000000	          0.00000000	          0.00000000	          0.80729700	          0.00000000	         -0.26930300	          0.00000000	          0.00000000	          0.00000000	
          0.35750000	          3.58613500	        472.66856900	        -15.13355400	          0.29898900	          0.00600000	         -0.14553300	          0.00000000	         -2.35078600	          0.00000000	          0.00000000	          0.00000000	          0.00000000	          0.80729700	          0.00000000	         -0.26930300	          0.00000000	          0.00000000	          0.00000000	
          0.35800000	          3.70976800	        472.74779800	        -15.10310800	          0.29916600	          0.00600000	         -0.14553300	          0.00000000	         -2.35962800	          0.00000000	          0.00000000	          0.00000000	          0.00000000	          0.80729700	          0.00000000	         -0.26930300	          0.00000000	          0.00000000	          0.00000000	
          0.35850000	          3.83389400	        472.83420900	        -15.07312700	          0.29934300	          0.00600000	         -0.14553300	          0.00000000	         -2.36838500	          0.00000000	          0.00000000	          0.00000000	          0.00000000	          0.80729700	          0.00000000	         -0.26930300	          0.00000000	          0.00000000	          0.00000000	
          0.35900000	          3.95844200	        472.92774200	        -15.04365800	          0.29951900	          0.00600000	         -0.14553300	          0.00000000	         -2.37706700	          0.00000000	          0.00000000	          0.00000000	          0.00000000	          0.80729700	          0.00000000	         -0.26930300	          0.00000000	          0.00000000	          0.00000000	
          0.35950000	          4.08333300	        473.02831300	        -15.01475900	          0.29969600	          0.00600000	         -0.14553200	          0.00000000	         -2.38568600	          0.00000000	          0.00000000	          0.00000000	          0.00000000	          0.80729700	          0.00000000	         -0.26930300	          0.00000000	          0.00000000	          0.00000000	
          0.36000000	          4.20848100	        473.13582700	        -14.98649400	          0.29987200	          0.00600000	         -0.14553200	          0.00000000	         -2.39425000	          0.00000000	          0.00000000	          0.00000000	          0.00000000	          0.80729700	          0.00000000	         -0.26930300	          0.00000000	          0.00000000	          0.00000000	
          0.36050000	          4.33378500	        473.25020100	        -14.95893900	          0.30004900	          0.00600000	         -0.14553100	          0.00000000	         -2.40276200	          0.00000000	          0.00000000	          0.00000000	          0.00000000	          0.80729700	          0.00000000	         -0.26930300	          0.00000000	          0.00000000	          0.00000000	
          0.36100000	          4.45913000	        473.37136300	        -14.93218700	          0.30022600	          0.00600000	         -0.14553000	          0.00000000	         -2.41122500	          0.00000000	          0.00000000	          0.00000000	          0.00000000	          0.80729700	          0.00000000	         -0.26930300	          0.00000000	          0.00000000	          0.00000000	
          0.36150000	          4.58438900	        473.49925000	        -14.90634700	          0.30040300	          0.00600000	         -0.14552800	          0.00000000	         -2.41964500	          0.00000000	          0.00000000	          0.00000000	          0.00000000	          0.80729700	          0.00000000	         -0.26930300	          0.00000000	          0.00000000	          0.00000000	
          0.36200000	          4.70944000	        473.63381900	        -14.88153700	          0.30058100	          0.00600000	         -0.14552600	          0.00000000	         -2.42802200	          0.00000000	          0.00000000	          0.00000000	          0.00000000	          0.80729700	          0.00000000	         -0.26930300	          0.00000000	          0.00000000	          0.00000000	
          0.36250000	          4.83418000	        473.77505800	        -14.85787500	          0.30076000	          0.00600000	         -0.14552400	          0.00000000	         -2.43635300	          0.00000000	          0.00000000	          0.00000000	          0.00000000	          0.80729700	          0.00000000	         -0.26930300	          0.00000000	          0.00000000	          0.00000000	
          0.36300000	          4.95855000	        473.92300200	        -14.83545600	          0.30093900	          0.00600000	         -0.14552100	          0.00000000	         -2.44462600	          0.00000000	          0.00000000	          0.00000000	          0.00000000	          0.80729700	          0.00000000	         -0.26930300	          0.00000000	          0.00000000	          0.00000000	
          0.36350000	          5.08252700	        474.07774300	        -14.81435000	          0.30112000	          0.00600000	         -0.14551800	          0.00000000	         -2.45282600	          0.00000000	          0.00000000	          0.00000000	          0.00000000	          0.80729700	          0.00000000	         -0.26930300	          0.00000000	          0.00000000	          0.00000000	
          0.36400000	          5.20611300	        474.23940500	        -14.79459700	          0.30130100	          0.00600000	         -0.14551400	          0.00000000	         -2.46093600	          0.00000000	          0.00000000	          0.00000000	          0.00000000	          0.80729700	          0.00000000	         -0.26930300	          0.00000000	          0.00000000	          0.00000000	
          0.36450000	          5.32930200	        474.40811400	        -14.77622700	          0.30148400	          0.00600000	         -0.14551000	          0.00000000	         -2.46894100	          0.00000000	          0.00000000	          0.00000000	          0.00000000	          0.80729700	          0.00000000	         -0.26930300	          0.00000000	          0.00000000	          0.00000000	
          0.36500000	          5.45207500	        474.58397300	        -14.75926400	          0.30166700	          0.00600000	         -0.14550500	          0.00000000	         -2.47682400	          0.00000000	          0.00000000	          0.00000000	          0.00000000	          0.80729700	          0.00000000	         -0.26930300	          0.00000000	          0.00000000	          0.00000000	
          0.36550000	          5.57440600	        474.76704900	        -14.74373300	          0.30185200	          0.00600000	         -0.14550000	          0.00000000	         -2.48457700	          0.00000000	          0.00000000	          0.00000000	          0.00000000	          0.80729700	          0.00000000	         -0.26930300	          0.00000000	          0.00000000	          0.00000000	
          0.36600000	          5.69627000	        474.95736400	        -14.72965800	          0.30203800	          0.00600000	         -0.14549400	          0.00000000	         -2.49219400	          0.00000000	          0.00000000	          0.00000000	          0.00000000	          0.80729700	          0.00000000	         -0.26930300	          0.00000000	          0.00000000	          0.00000000	
